<svg xmlns="http://www.w3.org/2000/svg" viewBox="0 0 448 512" fill="currentColor">
  <path d="M224.1 141c-63.6 0-115.1 51.5-115.1 115.1s51.5 115.1 115.1 115.1 115.1-51.5 115.1-115.1S287.7 141 224.1 141zm0 189.6c-41.2 0-74.5-33.4-74.5-74.5s33.4-74.5 74.5-74.5 74.5 33.4 74.5 74.5-33.3 74.5-74.5 74.5zm146.4-194.3c0 14.9-12 26.9-26.9 26.9-14.9 0-26.9-12-26.9-26.9 0-14.9 12-26.9 26.9-26.9 14.9 0 26.9 12 26.9 26.9zM398.8 80c-22.1-22.1-51.6-34.2-82.8-34.2H132c-31.2 0-60.7 12.1-82.8 34.2C27.1 102.1 15 131.6 15 162.8v186.4c0 31.2 12.1 60.7 34.2 82.8C71.3 454.1 100.8 466.2 132 466.2h184c31.2 0 60.7-12.1 82.8-34.2 22.1-22.1 34.2-51.6 34.2-82.8V162.8c0-31.2-12.1-60.7-34.2-82.8z"></path>
</svg>
